<svg width="23" height="21" viewBox="0 0 23 21" fill="none" xmlns="http://www.w3.org/2000/svg">
<path d="M8.29167 2.625H5.54167C4.93388 2.625 4.35098 2.85547 3.92121 3.2657C3.49144 3.67594 3.25 4.23234 3.25 4.8125C3.25 5.39266 3.49144 5.94906 3.92121 6.3593C4.35098 6.76953 4.93388 7 5.54167 7H8.29167C8.89945 7 9.48235 6.76953 9.91212 6.3593C10.3419 5.94906 10.5833 5.39266 10.5833 4.8125C10.5833 4.23234 10.3419 3.67594 9.91212 3.2657C9.48235 2.85547 8.89945 2.625 8.29167 2.625ZM8.29167 6.125H5.54167C5.17699 6.125 4.82726 5.98672 4.56939 5.74058C4.31153 5.49444 4.16667 5.1606 4.16667 4.8125C4.16667 4.4644 4.31153 4.13056 4.56939 3.88442C4.82726 3.63828 5.17699 3.5 5.54167 3.5H8.29167C8.65634 3.5 9.00608 3.63828 9.26394 3.88442C9.5218 4.13056 9.66667 4.4644 9.66667 4.8125C9.66667 5.1606 9.5218 5.49444 9.26394 5.74058C9.00608 5.98672 8.65634 6.125 8.29167 6.125ZM8.29167 8.75H5.54167C4.93388 8.75 4.35098 8.98047 3.92121 9.3907C3.49144 9.80094 3.25 10.3573 3.25 10.9375V16.1875C3.25 16.7677 3.49144 17.3241 3.92121 17.7343C4.35098 18.1445 4.93388 18.375 5.54167 18.375H8.29167C8.89945 18.375 9.48235 18.1445 9.91212 17.7343C10.3419 17.3241 10.5833 16.7677 10.5833 16.1875V10.9375C10.5833 10.3573 10.3419 9.80094 9.91212 9.3907C9.48235 8.98047 8.89945 8.75 8.29167 8.75ZM9.66667 16.1875C9.66667 16.5356 9.5218 16.8694 9.26394 17.1156C9.00608 17.3617 8.65634 17.5 8.29167 17.5H5.54167C5.17699 17.5 4.82726 17.3617 4.56939 17.1156C4.31153 16.8694 4.16667 16.5356 4.16667 16.1875V10.9375C4.16667 10.5894 4.31153 10.2556 4.56939 10.0094C4.82726 9.76328 5.17699 9.625 5.54167 9.625H8.29167C8.65634 9.625 9.00608 9.76328 9.26394 10.0094C9.5218 10.2556 9.66667 10.5894 9.66667 10.9375V16.1875ZM17.4583 14H14.7083C14.1005 14 13.5177 14.2305 13.0879 14.6407C12.6581 15.0509 12.4167 15.6073 12.4167 16.1875C12.4167 16.7677 12.6581 17.3241 13.0879 17.7343C13.5177 18.1445 14.1005 18.375 14.7083 18.375H17.4583C18.0661 18.375 18.649 18.1445 19.0788 17.7343C19.5086 17.3241 19.75 16.7677 19.75 16.1875C19.75 15.6073 19.5086 15.0509 19.0788 14.6407C18.649 14.2305 18.0661 14 17.4583 14ZM17.4583 17.5H14.7083C14.3437 17.5 13.9939 17.3617 13.7361 17.1156C13.4782 16.8694 13.3333 16.5356 13.3333 16.1875C13.3333 15.8394 13.4782 15.5056 13.7361 15.2594C13.9939 15.0133 14.3437 14.875 14.7083 14.875H17.4583C17.823 14.875 18.1727 15.0133 18.4306 15.2594C18.6885 15.5056 18.8333 15.8394 18.8333 16.1875C18.8333 16.5356 18.6885 16.8694 18.4306 17.1156C18.1727 17.3617 17.823 17.5 17.4583 17.5ZM17.4583 2.625H14.7083C14.1005 2.625 13.5177 2.85547 13.0879 3.2657C12.6581 3.67594 12.4167 4.23234 12.4167 4.8125V10.0625C12.4167 10.6427 12.6581 11.1991 13.0879 11.6093C13.5177 12.0195 14.1005 12.25 14.7083 12.25H17.4583C18.0661 12.25 18.649 12.0195 19.0788 11.6093C19.5086 11.1991 19.75 10.6427 19.75 10.0625V4.8125C19.75 4.23234 19.5086 3.67594 19.0788 3.2657C18.649 2.85547 18.0661 2.625 17.4583 2.625ZM18.8333 10.0625C18.8333 10.4106 18.6885 10.7444 18.4306 10.9906C18.1727 11.2367 17.823 11.375 17.4583 11.375H14.7083C14.3437 11.375 13.9939 11.2367 13.7361 10.9906C13.4782 10.7444 13.3333 10.4106 13.3333 10.0625V4.8125C13.3333 4.4644 13.4782 4.13056 13.7361 3.88442C13.9939 3.63828 14.3437 3.5 14.7083 3.5H17.4583C17.823 3.5 18.1727 3.63828 18.4306 3.88442C18.6885 4.13056 18.8333 4.4644 18.8333 4.8125V10.0625Z" fill="#FFB800"/>
</svg>
