<svg width="17" height="16" viewBox="0 0 17 16" fill="none" xmlns="http://www.w3.org/2000/svg">
<path d="M14.8977 4.82666C14.8982 4.73892 14.8814 4.65194 14.8483 4.57072C14.8151 4.48949 14.7662 4.41562 14.7044 4.35332L11.8777 1.52666C11.8154 1.46487 11.7416 1.41599 11.6603 1.38281C11.5791 1.34963 11.4921 1.33282 11.4044 1.33332C11.3167 1.33282 11.2297 1.34963 11.1485 1.38281C11.0672 1.41599 10.9934 1.46487 10.9311 1.52666L9.0444 3.41332L1.75774 10.7C1.69595 10.7623 1.64707 10.8362 1.61389 10.9174C1.58071 10.9986 1.5639 11.0856 1.5644 11.1733V14C1.5644 14.1768 1.63464 14.3464 1.75967 14.4714C1.88469 14.5964 2.05426 14.6667 2.23107 14.6667H5.05774C5.15102 14.6717 5.24433 14.6571 5.33162 14.6238C5.4189 14.5905 5.49821 14.5393 5.5644 14.4733L12.8111 7.18666L14.7044 5.33332C14.7653 5.26871 14.8148 5.19435 14.8511 5.11332C14.8575 5.06018 14.8575 5.00646 14.8511 4.95332C14.8542 4.92229 14.8542 4.89102 14.8511 4.85999L14.8977 4.82666ZM4.7844 13.3333H2.89774V11.4467L9.51774 4.82666L11.4044 6.71332L4.7844 13.3333ZM12.3444 5.77332L10.4577 3.88666L11.4044 2.94666L13.2844 4.82666L12.3444 5.77332Z" fill="#FFB800"/>
</svg>
