<svg width="25" height="23" viewBox="0 0 25 23" fill="none" xmlns="http://www.w3.org/2000/svg">
<path d="M17.78 11.5C17.78 11.753 17.564 11.96 17.3 11.96H12.98V16.1C12.98 16.353 12.764 16.56 12.5 16.56C12.236 16.56 12.02 16.353 12.02 16.1V11.96H7.7C7.436 11.96 7.22 11.753 7.22 11.5C7.22 11.247 7.436 11.04 7.7 11.04H12.02V6.90001C12.02 6.64701 12.236 6.44001 12.5 6.44001C12.764 6.44001 12.98 6.64701 12.98 6.90001V11.04H17.3C17.564 11.04 17.78 11.247 17.78 11.5ZM21.62 11.5C21.62 16.33 17.54 20.24 12.5 20.24C7.46 20.24 3.38 16.33 3.38 11.5C3.38 6.67001 7.46 2.76001 12.5 2.76001C17.54 2.76001 21.62 6.67001 21.62 11.5ZM20.66 11.5C20.66 7.17601 17.012 3.68001 12.5 3.68001C7.98801 3.68001 4.34 7.17601 4.34 11.5C4.34 15.824 7.98801 19.32 12.5 19.32C17.012 19.32 20.66 15.824 20.66 11.5Z" fill="#FFB800"/>
</svg>
