<svg width="17" height="16" viewBox="0 0 17 16" fill="none" xmlns="http://www.w3.org/2000/svg">
<path d="M7.08822 0C5.83108 0 4.80251 0.9 4.80251 2H2.51679C1.25965 2 0.231079 2.9 0.231079 4H16.2311C16.2311 2.9 15.2025 2 13.9454 2H11.6597C11.6597 0.9 10.6311 0 9.37394 0H7.08822ZM2.51679 6V15.62C2.51679 15.84 2.69965 16 2.95108 16H13.5339C13.7854 16 13.9682 15.84 13.9682 15.62V6H11.6825V13C11.6825 13.56 11.1797 14 10.5397 14C9.89965 14 9.39679 13.56 9.39679 13V6H7.11108V13C7.11108 13.56 6.60822 14 5.96822 14C5.32822 14 4.82537 13.56 4.82537 13V6H2.53965H2.51679Z" fill="#FF0000"/>
</svg>
